#Comment line ignore any data following # character 
#Hierarchical Translation and Rotation (.htr) file 
[Header]	
#Header keywords are followed by a single value 
FileType HTR		#Single word string
DataType HTRS		#Translation followed by rotation and scale data
FileVersion 1		#integer
NumSegments 23		#integer
NumFrames 5		#integer
DataFrameRate 30		#integer, data frame rate in this file
EulerRotationOrder ZYX
CalibrationUnits mm
RotationUnits Degrees
GlobalAxisofGravity Y
BoneLengthAxis Y
ScaleFactor 1.00
[SegmentNames&Hierarchy]
#CHILD	PARENT
MASTER GLOBAL
weapon MASTER
arm_lock_bottom_part1 weapon
arm_lock_bottom_part2 weapon
arm_lock_bottom_part3 weapon
arm_lock_bottom_part4 weapon
arm_lock_top_part1 weapon
arm_lock_top_part2 weapon
arm_lock_top_part3 weapon
front_lower_left_part1 weapon
front_lower_right_part1 weapon
front_top_left_part weapon
front_top_right_part1 weapon
scope_part1 weapon
scope_part2 weapon
front_lower_left_part2 front_lower_left_part1
front_lower_left_part3 front_lower_left_part2
front_lower_right_part2 front_lower_right_part1
front_lower_right_part3 front_lower_right_part2
front_top_left_part2 front_top_left_part
front_top_left_part3 front_top_left_part2
front_top_right_part2 front_top_right_part1
front_top_right_part3 front_top_right_part2
[BasePosition]
#SegmentName Tx, Ty, Tz, Rx, Ry, Rz, BoneLength
MASTER 0.000000 0.000000 0.000000 -90.000000 0.000000 0.000000 10.000000 
weapon 0.000000 0.000000 0.000000 0.000000 0.000000 0.000000 10.000000 
arm_lock_bottom_part1 0.000000 0.000000 0.000000 0.000000 0.000000 0.000000 10.000000 
arm_lock_bottom_part2 0.000000 0.000000 0.000000 0.000000 0.000000 0.000000 10.000000 
arm_lock_bottom_part3 0.000000 0.000000 0.000000 0.000000 0.000000 0.000000 10.000000 
arm_lock_bottom_part4 0.000000 0.000000 0.000000 0.000000 0.000000 0.000000 10.000000 
arm_lock_top_part1 0.000000 0.000000 0.000000 0.000000 0.000000 0.000000 10.000000 
arm_lock_top_part2 0.000000 0.000000 0.000000 0.000000 0.000000 0.000000 10.000000 
arm_lock_top_part3 0.000000 0.000000 0.000000 0.000000 0.000000 0.000000 10.000000 
front_lower_left_part1 0.000000 0.000000 0.000000 0.000000 0.000000 0.000000 10.000000 
front_lower_right_part1 0.000000 0.000000 0.000000 0.000000 0.000000 0.000000 10.000000 
front_top_left_part 0.000000 0.000000 0.000000 0.000000 0.000000 0.000000 10.000000 
front_top_right_part1 0.000000 0.000000 0.000000 0.000000 0.000000 0.000000 10.000000 
scope_part1 0.000000 0.000000 0.000000 0.000000 0.000000 0.000000 10.000000 
scope_part2 0.000000 0.000000 0.000000 0.000000 0.000000 0.000000 10.000000 
front_lower_left_part2 0.000000 0.000000 0.000000 0.000000 0.000000 0.000000 10.000000 
front_lower_left_part3 0.000000 0.000000 0.000000 0.000000 0.000000 0.000000 10.000000 
front_lower_right_part2 0.000000 0.000000 0.000000 0.000000 0.000000 0.000000 10.000000 
front_lower_right_part3 0.000000 0.000000 0.000000 0.000000 0.000000 0.000000 10.000000 
front_top_left_part2 0.000000 0.000000 0.000000 0.000000 0.000000 0.000000 10.000000 
front_top_left_part3 0.000000 0.000000 0.000000 0.000000 0.000000 0.000000 10.000000 
front_top_right_part2 0.000000 0.000000 0.000000 0.000000 0.000000 0.000000 10.000000 
front_top_right_part3 0.000000 0.000000 0.000000 0.000000 0.000000 0.000000 10.000000 
#Beginning of Data. Separated by tabs
#Fr	Tx	Ty	Tz	Rx	Ry	Rz	SF
[MASTER]
18 0.000000 -0.000019 0.000002 0.002458 -0.000000 0.000000 0.000019
19 0.000000 -0.000019 0.000002 0.002458 -0.000000 0.000000 0.000019
20 0.000000 -0.000019 0.000002 0.002458 -0.000000 0.000000 0.000019
21 0.000000 -0.000019 0.000002 0.002458 -0.000000 0.000000 0.000019
22 0.000000 -0.000019 0.000002 0.002458 -0.000000 0.000000 0.000019
[weapon]
18 10.182438 -168.977936 -13.084106 -0.002473 -0.000000 -0.000020 169.789337
19 10.182438 -168.977936 -13.084106 -0.002473 -0.000000 -0.000020 169.789337
20 10.182476 -168.977936 -13.084106 -0.002473 -0.000000 -0.000020 169.789337
21 10.182476 -168.977890 -13.084106 -0.002473 -0.000000 -0.000020 169.789291
22 10.182476 -168.977936 -13.084106 -0.002473 -0.000000 -0.000020 169.789337
[arm_lock_bottom_part1]
18 -48.819977 98.566208 -83.498917 179.999985 0.000004 9.388626 138.096909
19 -48.819977 98.566208 -83.498917 179.999985 0.000004 9.388626 138.096909
20 -48.820000 98.566132 -83.498993 179.999985 0.000004 9.388626 138.096909
21 -48.820000 98.566170 -83.498993 179.999985 0.000004 9.388626 138.096939
22 -48.819977 98.566170 -83.498993 179.999985 0.000004 9.388626 138.096924
[arm_lock_bottom_part2]
18 -49.022732 58.781967 -78.526459 -179.999985 -0.000001 6.576765 109.658348
19 -49.022732 58.781967 -78.526459 -179.999985 -0.000001 6.576765 109.658348
20 -49.022751 58.781929 -78.526535 -179.999985 -0.000001 6.576765 109.658386
21 -49.022751 58.781967 -78.526535 -179.999985 -0.000001 6.576765 109.658409
22 -49.022713 58.781967 -78.526535 -179.999985 -0.000001 6.576765 109.658394
[arm_lock_bottom_part3]
18 -51.266422 -16.798210 -66.920319 -179.999985 -0.000001 4.326176 85.957870
19 -51.266422 -16.798210 -66.920319 -179.999985 -0.000001 4.326176 85.957870
20 -51.266403 -16.798248 -66.920395 -179.999985 -0.000001 4.326176 85.957924
21 -51.266422 -16.798210 -66.920395 -179.999985 -0.000001 4.326176 85.957924
22 -51.266403 -16.798210 -66.920395 -179.999985 -0.000001 4.326176 85.957916
[arm_lock_bottom_part4]
18 -40.078068 -93.503075 -59.329987 -179.999985 -0.000000 1.322129 117.767242
19 -40.078068 -93.503075 -59.329987 -179.999985 -0.000000 1.322129 117.767242
20 -40.078083 -93.503113 -59.330063 -179.999985 -0.000000 1.322129 117.767319
21 -40.078068 -93.503098 -59.330063 -179.999985 -0.000000 1.322129 117.767296
22 -40.078083 -93.503075 -59.330063 -179.999985 -0.000000 1.322129 117.767281
[arm_lock_top_part1]
18 -47.532558 61.554371 78.379509 0.000000 -0.000000 -9.999999 110.415726
19 -47.532558 61.554371 78.379509 0.000000 -0.000000 -9.999999 110.415726
20 -47.532558 61.554371 78.379364 0.000000 -0.000000 -9.999999 110.415619
21 -47.532558 61.554413 78.379364 0.000000 -0.000000 -9.999999 110.415642
22 -47.532558 61.554413 78.379364 0.000000 -0.000000 -9.999999 110.415642
[arm_lock_top_part2]
18 -45.622673 13.709869 63.393398 0.000000 -0.000000 -7.722126 79.297615
19 -45.622673 13.709869 63.393398 0.000000 -0.000000 -7.722126 79.297615
20 -45.622711 13.709869 63.393555 0.000000 -0.000000 -7.722126 79.297760
21 -45.622711 13.709869 63.393555 0.000000 -0.000000 -7.722126 79.297760
22 -45.622711 13.709869 63.393555 0.000000 -0.000000 -7.722126 79.297760
[arm_lock_top_part3]
18 -43.788586 -73.747192 72.061462 0.000000 0.000000 -4.533067 112.022064
19 -43.788586 -73.747192 72.061462 0.000000 0.000000 -4.533067 112.022064
20 -43.788567 -73.747231 72.061615 0.000000 0.000000 -4.533067 112.022179
21 -43.788586 -73.747208 72.061615 0.000000 0.000000 -4.533067 112.022179
22 -43.788567 -73.747208 72.061615 0.000000 0.000000 -4.533067 112.022171
[front_lower_left_part1]
18 -46.798458 475.070953 -43.538815 -17.957516 0.915024 35.014805 479.351776
19 -46.798458 475.070953 -43.538815 -17.963318 0.677824 34.283535 479.351776
20 -46.798492 475.070953 -43.538815 -17.974152 0.237202 32.925308 479.351776
21 -46.798492 475.070953 -43.538815 -17.980032 0.000052 32.194073 479.351776
22 -46.798492 475.070953 -43.538815 -17.980034 0.000051 32.194077 479.351776
[front_lower_right_part1]
18 26.433506 475.071014 -43.538895 -17.119419 0.076882 -27.043909 477.793701
19 26.433506 475.071014 -43.538895 -17.154135 -0.700148 -29.584856 477.793701
20 26.433447 475.070953 -43.538815 -17.158144 -0.661323 -29.459351 477.793640
21 26.433447 475.071014 -43.538815 -17.161442 -0.561363 -29.135559 477.793701
22 26.433487 475.070953 -43.538815 -17.163940 -0.424575 -28.692642 477.793640
[front_top_left_part]
18 -47.897167 494.788635 7.030945 -0.000000 0.000003 -0.000001 497.151245
19 -47.897167 494.788635 7.030945 -0.000000 0.000003 -0.000001 497.151245
20 -47.897186 494.788635 7.030945 -0.000000 0.000003 -0.000001 497.151245
21 -47.897186 494.788635 7.030945 -0.000000 0.000003 -0.000001 497.151245
22 -47.897167 494.788635 7.030945 -0.000000 0.000003 -0.000001 497.151245
[front_top_right_part1]
18 27.532177 494.788727 7.030945 0.000000 -0.000000 -0.000000 495.604004
19 27.532177 494.788727 7.030945 0.000000 -0.000000 -0.000000 495.604004
20 27.532156 494.788727 7.030945 0.000000 -0.000000 -0.000000 495.604004
21 27.532156 494.788727 7.030945 0.000000 -0.000000 -0.000000 495.604004
22 27.532156 494.788727 7.030945 0.000000 -0.000000 -0.000000 495.604004
[scope_part1]
18 -10.754337 87.338936 156.453232 -5.094402 -15.675614 1.379905 179.503098
19 -10.754337 87.338936 156.453232 -5.094402 -15.675614 1.379905 179.503098
20 -10.754337 87.338905 156.452942 -5.094402 -15.675614 1.379905 179.502823
21 -10.754318 87.338936 156.453094 -5.094402 -15.675614 1.379905 179.502960
22 -10.754318 87.338936 156.453094 -5.094402 -15.675614 1.379905 179.502960
[scope_part2]
18 -10.754337 82.597389 156.859894 -5.715013 30.846378 -2.937432 177.603516
19 -10.754337 82.597389 156.859894 -5.715013 30.846378 -2.937432 177.603516
20 -10.754356 82.597305 156.859894 -5.715013 30.846378 -2.937432 177.603470
21 -10.754356 82.597351 156.859894 -5.715013 30.846378 -2.937432 177.603500
22 -10.754356 82.597351 156.859894 -5.715013 30.846378 -2.937432 177.603500
[front_lower_left_part2]
18 -55.193596 141.618454 32.268372 0.000000 -0.000000 15.371656 155.381363
19 -55.193634 141.618454 32.268372 0.000000 -0.000000 15.371656 155.381378
20 -55.193558 141.618393 32.268372 0.000000 -0.000000 15.371656 155.381287
21 -55.193634 141.618408 32.268219 0.000000 -0.000000 15.371656 155.381317
22 -55.193516 141.618408 32.268219 0.000000 -0.000000 15.371656 155.381271
[front_lower_left_part3]
18 -10.943604 108.509521 -11.124725 35.646374 -8.890635 -24.057442 109.625900
19 -10.943831 108.509445 -11.124725 35.646374 -8.890635 -24.057442 109.625847
20 -10.943831 108.509369 -11.124877 35.646374 -8.890635 -24.057442 109.625786
21 -10.943831 108.509483 -11.124877 35.646374 -8.890635 -24.057442 109.625893
22 -10.943831 108.509483 -11.124725 35.646374 -8.890635 -24.057442 109.625885
[front_lower_right_part2]
18 55.193665 141.618347 32.268219 0.000000 0.000000 -19.035873 155.381241
19 55.193653 141.618347 32.268219 0.000000 0.000000 -19.035873 155.381241
20 55.193729 141.618240 32.268372 0.000000 0.000000 -19.035873 155.381210
21 55.193695 141.618240 32.268372 0.000000 0.000000 -19.035873 155.381195
22 55.193665 141.618317 32.268372 0.000000 0.000000 -19.035873 155.381256
[front_lower_right_part3]
18 10.943928 108.509521 -11.124725 31.675419 19.369871 7.959487 109.625931
19 10.943928 108.509369 -11.124725 32.108898 18.585400 9.292593 109.625786
20 10.943831 108.509521 -11.124573 32.698921 17.433516 11.200691 109.625908
21 10.943870 108.509521 -11.124725 33.341648 16.044674 13.431954 109.625923
22 10.943831 108.509552 -11.124725 33.952442 14.558846 15.745935 109.625961
[front_top_left_part2]
18 -80.992439 137.405701 57.209774 9.857290 0.542472 19.164196 169.449280
19 -84.537811 137.398132 57.299347 9.859476 0.455047 19.667768 171.196106
20 -87.265030 137.392349 57.343899 9.860616 0.387741 20.055155 172.569290
21 -88.355911 137.389984 57.356110 9.860996 0.360850 20.210054 173.125671
22 -84.482483 137.398071 57.143250 9.845304 0.614383 18.749550 171.116531
[front_top_left_part3]
18 -28.216438 149.656906 49.959793 -25.366148 -1.755416 -68.281288 160.278946
19 -28.216438 149.656982 49.959641 -25.673630 -1.342806 -66.191399 160.278961
20 -28.216438 149.656738 49.959641 -25.876066 -1.248389 -64.396217 160.278732
21 -28.216438 149.656830 49.959717 -25.997082 -1.342636 -62.992794 160.278839
22 -28.216438 149.657059 49.959717 -26.058109 -1.495245 -62.078682 160.279053
[front_top_right_part2]
18 72.496422 137.565765 53.194427 8.095091 0.787501 -20.312243 164.346329
19 77.172585 137.570267 52.937313 8.074878 0.996383 -21.779495 166.383728
20 80.769577 137.572388 52.739407 8.059350 1.157030 -22.908354 168.021820
21 82.208397 137.572998 52.660675 8.053197 1.221321 -23.359802 168.694107
22 78.255295 137.564545 52.877808 8.077417 1.029951 -22.011099 166.865082
[front_top_right_part3]
18 28.216467 149.656906 49.959488 -25.860619 3.805787 66.333870 160.278839
19 28.216488 149.656982 49.959641 -25.910534 3.421765 65.541023 160.278961
20 28.216488 149.656982 49.959641 -25.938662 3.185431 65.053963 160.278961
21 28.216503 149.656982 49.959793 -25.952589 3.061072 64.798096 160.279022
22 28.216578 149.656830 49.959641 -25.957817 3.012976 64.699089 160.278839
